<svg width="90" height="37" viewBox="0 0 90 37" fill="none" xmlns="http://www.w3.org/2000/svg">
<path d="M50.0587 21.2452C50.2455 21.2452 50.4029 21.1079 50.4299 20.9228C50.5098 20.3786 50.5491 19.9446 50.5491 19.3783C50.5491 17.8815 50.2714 16.5883 49.7232 15.2913C49.1775 13.9969 48.5704 12.9095 47.6154 11.9289C46.6604 10.9482 45.6453 10.1673 44.3535 9.60468C43.0618 9.04324 41.8979 8.75762 40.4096 8.75762C38.9212 8.75762 37.5115 9.04324 36.2198 9.60468C34.9293 10.1673 33.79 10.9482 32.835 11.9289C31.8813 12.9071 31.0885 13.9944 30.5404 15.2913C29.9935 16.587 29.7157 18.0041 29.7157 19.5009C29.7157 20.9976 29.9935 22.1781 30.5404 23.4885C31.0885 24.7989 31.8493 25.9537 32.803 26.9172C33.7568 27.8819 34.8949 28.6566 36.1878 29.2193C37.4795 29.7807 38.8892 30.0664 40.3776 30.0664C41.866 30.0664 43.5215 29.7807 44.8132 29.2193C46.1061 28.6566 47.2442 27.8819 48.198 26.9172C48.5962 26.5151 48.96 26.0799 49.2894 25.6141C49.411 25.4425 49.368 25.2047 49.1923 25.087L46.0545 22.9896C45.88 22.8731 45.6465 22.9246 45.531 23.0999C45.3343 23.4015 45.1106 23.6797 44.8636 23.9347C44.3548 24.4581 43.739 24.8737 43.0311 25.1728C42.3232 25.4707 41.2945 25.6215 40.4587 25.6215H40.3616C39.5271 25.6215 38.7442 25.4707 38.0363 25.1728C37.3284 24.8737 36.7114 24.4581 36.2038 23.9347C35.6937 23.4101 35.2869 22.7812 34.9956 22.0678C34.8899 21.8079 34.8015 21.5321 34.7339 21.2452H50.06H50.0587ZM34.9944 16.4828C35.2857 15.7682 35.6925 15.1406 36.2026 14.6147C36.7102 14.0925 37.3271 13.6757 38.0351 13.3778C38.743 13.0799 39.5259 12.9291 40.3604 12.9291H40.2117C41.0474 12.9291 41.8303 13.0799 42.5382 13.3778C43.2462 13.6757 43.8619 14.0925 44.3707 14.6147C44.8808 15.1406 45.2876 15.7682 45.5789 16.4828C45.6846 16.7427 45.7719 17.0185 45.8407 17.3054H34.7326C34.8002 17.0185 34.8887 16.7427 34.9944 16.4828V16.4828Z" fill="#7849FF"/>
<path d="M57.5153 0.899994H53.6217C53.4154 0.899994 53.2481 1.06684 53.2481 1.27265V28.892C53.2481 29.0978 53.4154 29.2646 53.6217 29.2646H57.5153C57.7217 29.2646 57.889 29.0978 57.889 28.892V1.27265C57.889 1.06684 57.7217 0.899994 57.5153 0.899994Z" fill="#7849FF"/>
<path d="M64.3671 3.13348C64.3044 3.06238 64.2319 2.99741 64.1483 2.95328C63.7894 2.7596 63.3777 2.85154 63.1344 3.12612L60.7193 5.85606C60.5018 6.10123 60.4809 6.45672 60.6849 6.73621C60.8164 6.91764 61.0364 7.01203 61.2613 7.01203H66.2352C66.4614 7.01203 66.6826 6.91519 66.8141 6.73254C67.0144 6.45305 66.9923 6.1 66.776 5.85606L64.3683 3.13348H64.3671Z" fill="#7849FF"/>
<path d="M65.6946 9.55932H61.801C61.5946 9.55932 61.4274 9.72616 61.4274 9.93197V28.892C61.4274 29.0978 61.5946 29.2647 61.801 29.2647H65.6946C65.9009 29.2647 66.0682 29.0978 66.0682 28.892V9.93197C66.0682 9.72616 65.9009 9.55932 65.6946 9.55932Z" fill="#7849FF"/>
<path d="M19.3623 9.07143C17.1918 9.07143 15.2794 9.92706 13.6755 11.6175C12.0716 9.92829 10.1592 9.07143 7.98874 9.07143C5.81826 9.07143 3.767 9.93074 2.27618 11.4925C0.808707 13.0321 0 15.0989 0 17.314V28.892C0 29.0979 0.167149 29.2646 0.373627 29.2646H4.23035C4.43683 29.2646 4.60397 29.0979 4.60397 28.892V17.314C4.60397 16.3124 4.93827 15.3906 5.54419 14.7176C6.16117 14.0324 7.0301 13.6536 7.98874 13.6536C8.94739 13.6536 9.81509 14.0312 10.4333 14.7176C11.0392 15.3906 11.3735 16.3124 11.3735 17.314V28.892C11.3735 29.0979 11.5407 29.2646 11.7471 29.2646H15.6051C15.8116 29.2646 15.9787 29.0979 15.9787 28.892V17.314C15.9787 16.3137 16.313 15.3906 16.9189 14.7176C17.5371 14.0324 18.4048 13.6536 19.3635 13.6536C20.3221 13.6536 21.1898 14.0312 21.808 14.7176C22.414 15.3906 22.7483 16.3124 22.7483 17.314V28.892C22.7483 29.0979 22.9154 29.2646 23.1219 29.2646H26.9786C27.1851 29.2646 27.3522 29.0979 27.3522 28.892V17.314C27.3522 15.0989 26.5435 13.0321 25.0761 11.4925C23.5865 9.93074 21.5573 9.07143 19.3635 9.07143H19.3623Z" fill="#7849FF"/>
<path d="M81.8798 32.4592H76.9058C76.6822 32.4592 76.4609 32.5548 76.3294 32.735C76.1266 33.0145 76.1463 33.37 76.3638 33.6151L78.7715 36.3377C78.8342 36.4088 78.9067 36.4738 78.9903 36.5179C79.3492 36.7116 79.7609 36.6197 80.0042 36.3451L82.4193 33.6151C82.6356 33.3712 82.6577 33.0182 82.4574 32.7387C82.3259 32.5548 82.1047 32.4592 81.8785 32.4592H81.8798Z" fill="#7849FF"/>
<path d="M89.1876 15.2619C88.6493 13.9858 87.8984 12.8482 86.9569 11.8823C86.0155 10.9163 84.8934 10.1453 83.6213 9.59242C82.348 9.03834 80.958 8.75762 79.4917 8.75762C78.0255 8.75762 76.6342 9.03834 75.3622 9.59242C74.0901 10.1465 72.9668 10.9163 72.0253 11.8823C71.0851 12.847 70.3354 13.9834 69.7946 15.2619C69.2551 16.5392 68.9822 17.9355 68.9822 19.4114C68.9822 20.8873 69.2551 22.2921 69.7946 23.5829C70.3342 24.8749 71.0851 26.0125 72.0253 26.9638C72.9656 27.915 74.0877 28.6775 75.3609 29.2316C76.6342 29.7856 78.0243 30.0664 79.4905 30.0664C80.9568 30.0664 82.3468 29.7856 83.6201 29.2316C84.8934 28.6775 86.0167 27.9138 86.9569 26.9638C87.8984 26.0113 88.6481 24.8737 89.1876 23.5829C89.7272 22.2909 90 20.8873 90 19.4114C90 17.9355 89.7259 16.5405 89.1864 15.2619H89.1876ZM73.8197 19.4114C73.8197 18.5177 73.9549 17.6817 74.2204 16.9266C74.4859 16.1715 74.8644 15.5181 75.3487 14.9849C75.8317 14.4516 76.4302 14.025 77.1295 13.7161C77.8289 13.4072 78.624 13.2491 79.4917 13.2491C80.3594 13.2491 81.1534 13.406 81.8539 13.7161C82.5545 14.0263 83.153 14.4529 83.6361 14.9849C84.1191 15.5169 84.4976 16.1703 84.7643 16.9266C85.0298 17.6842 85.165 18.5202 85.165 19.4114C85.165 20.3026 85.031 21.1398 84.7643 21.8961C84.4976 22.6525 84.1178 23.3059 83.6361 23.8379C83.1543 24.3711 82.5545 24.7977 81.8539 25.1066C81.1559 25.4155 80.3607 25.5737 79.4917 25.5737C78.6228 25.5737 77.8276 25.4168 77.1295 25.1066C76.4302 24.7977 75.8304 24.3699 75.3487 23.8379C74.8656 23.3046 74.4859 22.6525 74.2216 21.8961C73.9562 21.1423 73.821 20.3062 73.821 19.4114H73.8197Z" fill="#7849FF"/>
</svg>
